/* XPM */
static char *f8d05c4e3ddb4263ce22dd662b010362F69F6ftlHoV3bKzX[] = {
/* columns rows colors chars-per-pixel */
"32 32 5 1 ",
"  c None",
". c gray13",
"X c gray25",
"o c gray51",
"O c gray65",
/* pixels */
"                                ",
"                                ",
"                                ",
"                ooooooo         ",
"            oooooOOOOOOo        ",
"          ooOOOOOOooooOOo       ",
"          ooOooooooooooooo      ",
"         ooooooooooooOOOoo      ",
"        oooooooooooooOooooo     ",
"        ooooooooooooOooooooo    ",
"     OOOXXooXXXXooooOoooooXoo   ",
"   OOooooXXooooXXXooooooXXooo   ",
"   OoooooooXoooooooooXXXXooooo  ",
"   OooooooooXooooooooXoooooooo  ",
"   oooooooooXo.....ooooooooooo  ",
"    ooooooooX..........ooooooo  ",
"    oooooooo............oooooo  ",
"    Xoooooo.............oooooo  ",
"    XXXXX...............ooXXXX  ",
"  oooooooo..............XXooooX ",
"  oOOOOoooo............ooooooooo",
" oOOOooooooo...........ooOOOOooo",
" oOooooooooo..........ooOOoooooo",
" oOooooooooo..........oOOooooooo",
"oOOooooooooo..........oOoooooooo",
"oOoooooooooo..........oooooooXXo",
"oooooooooXoo..........oooooooXoo",
"oooooooXXXoo..........ooooooXXoo",
" oooXXXXXooo..........oooooXXXo ",
" oooooXXXXoooooooooooooooXXXXoo ",
"  oooooXXooo  XXXXXXXX  oooooo  ",
"    ooooo                       "
};
