/* XPM */
static char *_702c6a9080e484cc43056ddf2b93c580lAAU7m7xKNYuVWs[] = {
/* columns rows colors chars-per-pixel */
"32 32 17 1 ",
"  c None",
". c #FADFA6",
"X c #8B2E45",
"o c #FFEDC7",
"O c #A83C57",
"+ c #FFF6E2",
"@ c #C34866",
"# c #FFE7B6",
"$ c #752438",
"% c #F7DDA8",
"& c #F7D897",
"* c #473819",
"= c #DFBA6C",
"- c #B3924E",
"; c #C5A35B",
": c #641A2D",
"> c white",
/* pixels */
"                                ",
"                                ",
"                                ",
"                                ",
"                                ",
"                                ",
"                                ",
"                                ",
"                                ",
"                                ",
"                                ",
"                                ",
"                                ",
"                                ",
"                                ",
"     .XXXXXXXXXXXXXXXXXXXX.     ",
"     oOOOOOOOOOOOOOOOOOOOOo     ",
"     +@@@@@@@@@@@@@@@@@@@@+     ",
"     +@@@@@@@@@@@@@@@@@@@@+     ",
"     oOOOOOOOOOOOOOOOOOOOOo     ",
"     #XXXXXXXXXXXXXXXXXXXX#     ",
"     .$$$$$$$$$$$$$$$$$$$$.     ",
"     .$$$$$$$$%%%%$$$$$$$$.     ",
"     &&&&&&&&&&**&&&&&&&&&&     ",
"     ==========**==========     ",
"     -;;;$$$$$;;;;$$$$$;;;-     ",
"     --;$$$$$$$$$$$$$$$$;--     ",
"     --::$$$$$$$$$$$$$$::--     ",
"     --::::::::::::::::::--     ",
"                                ",
"                                ",
"                                "
};
