/* XPM */
static char *d851902e93404bfde90ec57b92bb0d36RZB2UMfljhlmSQGG[] = {
/* columns rows colors chars-per-pixel */
"32 32 175 2 ",
"   c #587024",
".  c #526626",
"X  c #60792A",
"o  c #3A5125",
"O  c #3D5B2A",
"+  c #4C611F",
"@  c #4E6618",
"#  c #3E5C2B",
"$  c #3A5225",
"%  c #395125",
"&  c #A2D077",
"*  c #3E5B2B",
"=  c #A3D178",
"-  c #395225",
";  c #78AE5D",
":  c #77AD5C",
">  c #3E5B2A",
",  c #40602D",
"<  c #77AE5D",
"1  c #6BA052",
"2  c #6AA051",
"3  c #2F5328",
"4  c #38582A",
"5  c #518A42",
"6  c #528A42",
"7  c #385829",
"8  c #3E632F",
"9  c #3F632F",
"0  c #375729",
"q  c #538B42",
"w  c #334A21",
"e  c #35612E",
"r  c #35602E",
"t  c #6BA051",
"y  c #3D5B2B",
"u  c #35612F",
"i  c #34602E",
"p  c #324920",
"a  c #467939",
"s  c #487A3A",
"d  c #477A39",
"f  c #344D23",
"g  c #538B43",
"h  c #3D622E",
"j  c #344E23",
"k  c #477A3A",
"l  c #528B42",
"z  c #518B42",
"x  c #477939",
"c  c #35602F",
"v  c #2C441F",
"b  c #36612F",
"n  c #314920",
"m  c #334D23",
"M  c #4E7D43",
"N  c #4F7D42",
"B  c #4B7A41",
"V  c #2B441E",
"C  c #4F7D43",
"Z  c #4A793F",
"A  c #507E43",
"S  c #344D22",
"D  c #30592B",
"F  c #315A2B",
"G  c #4A7940",
"H  c #4B7A40",
"J  c #37582A",
"K  c #3E622E",
"L  c #3E622F",
"P  c #315A2C",
"I  c #305A2B",
"U  c #4B7940",
"Y  c #385729",
"T  c #2B431E",
"R  c #416532",
"E  c #416432",
"W  c #334C22",
"Q  c #4F7E43",
"!  c #456F35",
"~  c #375829",
"^  c #406432",
"/  c #2F451E",
"(  c #334C23",
")  c #446F35",
"_  c #426532",
"`  c #446F34",
"'  c #31592B",
"]  c #2F5A2C",
"[  c #447035",
"{  c #457035",
"}  c #2E441E",
"|  c #192B18",
" . c #273A1D",
".. c #26391D",
"X. c #30592A",
"o. c #467035",
"O. c #2D4322",
"+. c #192C18",
"@. c #1A2C19",
"#. c #2E4423",
"$. c #2E5A2C",
"%. c #2E4422",
"&. c #26391C",
"*. c #11140E",
"=. c #1A1F12",
"-. c #2F5B2C",
";. c #1B2013",
":. c #1C2114",
">. c #263A1D",
",. c #172013",
"<. c #191E11",
"1. c #528A41",
"2. c #487A39",
"3. c #171B0F",
"4. c #36602E",
"5. c #411628",
"6. c #4E7D42",
"7. c #354E23",
"8. c #1A2C18",
"9. c #3D612E",
"0. c #528B43",
"q. c #375728",
"w. c #111418",
"e. c #181C10",
"r. c #2D451F",
"t. c #421729",
"y. c #411627",
"u. c #121418",
"i. c #406431",
"p. c #191F12",
"a. c #416431",
"s. c #457034",
"d. c #2E5A2B",
"f. c #111318",
"g. c #2D592B",
"h. c #426432",
"j. c #456F34",
"k. c #2E381A",
"l. c #273B1C",
"z. c #2B451E",
"x. c #38592A",
"c. c #2E5B2C",
"v. c #2D5A2B",
"b. c #263B1C",
"n. c #1B2113",
"m. c #2E391A",
"M. c #1A2012",
"N. c #2B3B1B",
"B. c #273016",
"V. c #181E11",
"C. c #2D3819",
"Z. c #313C19",
"A. c #181D11",
"S. c #191F11",
"D. c #181E10",
"F. c #273017",
"G. c #171B10",
"H. c #4B1922",
"J. c #283317",
"K. c #2E3819",
"L. c #4A1721",
"P. c #4A1720",
"I. c #1B2012",
"U. c #6E252F",
"Y. c #6D242E",
"T. c #293318",
"R. c #2A3419",
"E. c #323C19",
"W. c #2D381A",
"Q. c #6E242F",
"!. c #181D10",
"~. c #2E391B",
"^. c #313D1A",
"/. c #491720",
"(. c white",
/* pixels */
"  . . . . X o O     + + + + + + @     X X     . # $ @ @ @ @ X X ",
"X       X % & X X X X X X X X     + +     . @ @ * = $       X @ ",
"      X - # ; : > +   X   , >   +     X .     * < ; # %     +   ",
"    X X > < 1 2 < > X   3 & #   .   X . X   O : 2 2 ; * X @   + ",
"+ +   X $ 4 5 6 7 8 #   > ; < > X . X     * 9 0 q 6 0 %     @ X ",
"X X   w > < e r < # . * ; 2 t < y . . + .   > ; u i < * p X X @ ",
"X X X p # a s 6 5 d f % 7 g 6 4 h # X     j k l z d x > p . . . ",
"X X   p * r c 9 8 i c O < c c < > v . . f b e 8 9 i u y n       ",
"X X m j M N 8 r h 8 B O a a z l d f V f C Z 8 8 c 8 M A j f X   ",
"  j S D F 7 g G H 6 J # r u K L i u f P I 0 5 U U 6 Y F D j f X ",
"    T R E 0 0 I P 7 W M Q 8 b 8 8 B C j ! 0 ~ I D 0 ~ ^ R v /   ",
"    v m ( ) & _ ` R ' I 7 6 B B g 7 D 7 ] [ ^ { & E { ] ] T }   ",
"X | T  ...f < < 0 V ^ 0 0 ~ F X.7 7 o.f O.0 > < < > Y 7 m  .| +.",
"X @.+.v  .< 1 t ; # #.$.{ R R ` E { ] #.%.# < 2 1 < E f &.+.*.  ",
"X X =.| V 0 6 z 0 L W #.4 0 ] 7 -.4 #.f #.#.Y g l Y _  .@.;.    ",
"    X :.* < r e < #  .m O.%.#.O.#.#.m >. .> < e r < O ,.<.      ",
"@     X # k k 1.5 2.f  .f W f W m W  ...j d 6 6 d a * 3.      + ",
"  + +   * i i h 9 c u f  .&. . ... .+.f 4.u K K r u # 5.X X X   ",
"+   m f 6.6.L r L 8 U A 7.+.8.+.| +.j C B L 9.r K N Q ( f       ",
". f j P F 4 6 B H 0.q.P I W 5.5.w.f D D Y 6 G U l 7 D P W f X   ",
"X e.r._ E Y 7 ' I 0 ~ [ m w.t.y.5.u.m [ 0 7 P ' 0 7 i.E V p.    ",
". e.v #.-.{ a.a.s.a.) d.#.v 5.f.u.T O.g.{ i.{ h.E j.] #.V k.. X ",
"X l.z.m #.x.x.c.0 v.0 #.W m 8.w.@.m W #.0 ] Y -.0 0 #.f v | 8.X ",
"  b.b.>.( #.#.#.#.#.#.W &.>.+.+.@. . .m #.#.#.#.#.O.W >.8.@.n.X ",
"  m.=.| ..f W m W W W >.@.n.M.<.:.N.@...f m m m m m &.@.<.=.    ",
"  + B.3.+. . . .>. . .+.<.=.<.;.p.p.n.@....... . ...@.V.C.Z.X X ",
"@ @   k.V.8.+.| @.+.8.n.=.A.<.=.=.=.S.D.@.+.| | | +.p.F.+     X ",
"    X   C.3.G.H.H.V.S.=.A.J.C.m.k.K.e.3.p.S.L.P.n.;.m.  . .   . ",
"    X X Z.I.;.L.U.Y.p.T.R.Z.Z.C.E.C.W.m.=.Y.Y.L.S.=.Z.X         ",
"@ @     k.<.P.Q.!.!.L.m.k.  @   X X Z.Z.P.<.<.U.P.<.C.  X X X X ",
"    @ @ @ T.L.V.C.~.^.X X X     . X     C.m.R.e./.T.X X X X X   ",
"          @ @ @ @ @ @ @ @ @     .   X X . . X X X X X X     . . "
};
